<mxfile host="app.diagrams.net" agent="Mozilla/5.0 (Windows NT 10.0; Win64; x64; rv:128.0) Gecko/20100101 Firefox/128.0" version="24.7.6">
  <diagram id="C5RBs43oDa-KdzZeNtuy" name="Page-1">
    <mxGraphModel dx="1050" dy="1746" grid="1" gridSize="10" guides="1" tooltips="1" connect="1" arrows="1" fold="1" page="1" pageScale="1" pageWidth="827" pageHeight="1169" math="0" shadow="0">
      <root>
        <mxCell id="WIyWlLk6GJQsqaUBKTNV-0" />
        <mxCell id="WIyWlLk6GJQsqaUBKTNV-1" parent="WIyWlLk6GJQsqaUBKTNV-0" />
        <mxCell id="2k_Up1OaFUUE34-ynXtq-18" value="" style="edgeStyle=orthogonalEdgeStyle;rounded=0;orthogonalLoop=1;jettySize=auto;html=1;" parent="WIyWlLk6GJQsqaUBKTNV-1" source="2k_Up1OaFUUE34-ynXtq-11" target="2k_Up1OaFUUE34-ynXtq-17" edge="1">
          <mxGeometry relative="1" as="geometry" />
        </mxCell>
        <mxCell id="2k_Up1OaFUUE34-ynXtq-11" value="&lt;div&gt;make_cart_label&lt;/div&gt;&lt;div&gt;int: amount&lt;/div&gt;&lt;div&gt;floate: price&lt;/div&gt;&lt;div&gt;string: name&lt;/div&gt;&lt;div&gt;string: serial number&lt;br&gt;&lt;/div&gt;" style="strokeWidth=2;html=1;shape=mxgraph.flowchart.terminator;whiteSpace=wrap;" parent="WIyWlLk6GJQsqaUBKTNV-1" vertex="1">
          <mxGeometry x="70" y="-90" width="150" height="100" as="geometry" />
        </mxCell>
        <mxCell id="2k_Up1OaFUUE34-ynXtq-12" value="end" style="strokeWidth=2;html=1;shape=mxgraph.flowchart.terminator;whiteSpace=wrap;" parent="WIyWlLk6GJQsqaUBKTNV-1" vertex="1">
          <mxGeometry x="95" y="790" width="100" height="60" as="geometry" />
        </mxCell>
        <mxCell id="2k_Up1OaFUUE34-ynXtq-20" value="" style="edgeStyle=orthogonalEdgeStyle;rounded=0;orthogonalLoop=1;jettySize=auto;html=1;entryX=0.5;entryY=0;entryDx=0;entryDy=0;" parent="WIyWlLk6GJQsqaUBKTNV-1" source="2k_Up1OaFUUE34-ynXtq-17" target="HWs9kD0eq3oXpUhwyqGG-0" edge="1">
          <mxGeometry relative="1" as="geometry" />
        </mxCell>
        <mxCell id="2k_Up1OaFUUE34-ynXtq-17" value="&lt;div&gt;update label with&lt;/div&gt;&lt;div&gt;name {serial number}Frame&lt;/div&gt;&lt;div&gt;set spacing depending&amp;nbsp;&lt;/div&gt;&lt;div&gt;on length of amount&lt;br&gt;&lt;/div&gt;" style="shape=parallelogram;perimeter=parallelogramPerimeter;whiteSpace=wrap;html=1;fixedSize=1;strokeWidth=2;" parent="WIyWlLk6GJQsqaUBKTNV-1" vertex="1">
          <mxGeometry x="60" y="40" width="170" height="60" as="geometry" />
        </mxCell>
        <mxCell id="2k_Up1OaFUUE34-ynXtq-22" value="no" style="edgeStyle=orthogonalEdgeStyle;rounded=0;orthogonalLoop=1;jettySize=auto;html=1;" parent="WIyWlLk6GJQsqaUBKTNV-1" source="2k_Up1OaFUUE34-ynXtq-19" target="2k_Up1OaFUUE34-ynXtq-21" edge="1">
          <mxGeometry relative="1" as="geometry" />
        </mxCell>
        <mxCell id="2k_Up1OaFUUE34-ynXtq-24" value="yes" style="edgeStyle=orthogonalEdgeStyle;rounded=0;orthogonalLoop=1;jettySize=auto;html=1;" parent="WIyWlLk6GJQsqaUBKTNV-1" source="2k_Up1OaFUUE34-ynXtq-19" target="2k_Up1OaFUUE34-ynXtq-23" edge="1">
          <mxGeometry relative="1" as="geometry" />
        </mxCell>
        <mxCell id="2k_Up1OaFUUE34-ynXtq-19" value="Error?" style="rhombus;whiteSpace=wrap;html=1;strokeWidth=2;" parent="WIyWlLk6GJQsqaUBKTNV-1" vertex="1">
          <mxGeometry x="90" y="400" width="110" height="80" as="geometry" />
        </mxCell>
        <mxCell id="2k_Up1OaFUUE34-ynXtq-34" value="" style="edgeStyle=orthogonalEdgeStyle;rounded=0;orthogonalLoop=1;jettySize=auto;html=1;" parent="WIyWlLk6GJQsqaUBKTNV-1" source="2k_Up1OaFUUE34-ynXtq-21" target="2k_Up1OaFUUE34-ynXtq-12" edge="1">
          <mxGeometry relative="1" as="geometry" />
        </mxCell>
        <mxCell id="2k_Up1OaFUUE34-ynXtq-21" value="&lt;div&gt;Pack &lt;br&gt;&lt;/div&gt;&lt;div&gt;{serial number}Frame&lt;br&gt;&lt;/div&gt;" style="shape=parallelogram;perimeter=parallelogramPerimeter;whiteSpace=wrap;html=1;fixedSize=1;strokeWidth=2;" parent="WIyWlLk6GJQsqaUBKTNV-1" vertex="1">
          <mxGeometry x="70" y="695" width="150" height="60" as="geometry" />
        </mxCell>
        <mxCell id="2k_Up1OaFUUE34-ynXtq-26" value="" style="edgeStyle=orthogonalEdgeStyle;rounded=0;orthogonalLoop=1;jettySize=auto;html=1;" parent="WIyWlLk6GJQsqaUBKTNV-1" source="2k_Up1OaFUUE34-ynXtq-23" target="2k_Up1OaFUUE34-ynXtq-25" edge="1">
          <mxGeometry relative="1" as="geometry" />
        </mxCell>
        <mxCell id="2k_Up1OaFUUE34-ynXtq-23" value="&lt;div&gt;make&lt;/div&gt;&lt;div&gt;{serial Number}Frame&lt;br&gt;&lt;/div&gt;" style="shape=parallelogram;perimeter=parallelogramPerimeter;whiteSpace=wrap;html=1;fixedSize=1;strokeWidth=2;" parent="WIyWlLk6GJQsqaUBKTNV-1" vertex="1">
          <mxGeometry x="240" y="410" width="160" height="60" as="geometry" />
        </mxCell>
        <mxCell id="2k_Up1OaFUUE34-ynXtq-29" value="" style="edgeStyle=orthogonalEdgeStyle;rounded=0;orthogonalLoop=1;jettySize=auto;html=1;" parent="WIyWlLk6GJQsqaUBKTNV-1" source="2k_Up1OaFUUE34-ynXtq-25" target="2k_Up1OaFUUE34-ynXtq-28" edge="1">
          <mxGeometry relative="1" as="geometry" />
        </mxCell>
        <mxCell id="2k_Up1OaFUUE34-ynXtq-25" value="configure columns of {serial number}Frame" style="whiteSpace=wrap;html=1;strokeWidth=2;" parent="WIyWlLk6GJQsqaUBKTNV-1" vertex="1">
          <mxGeometry x="440" y="410" width="120" height="60" as="geometry" />
        </mxCell>
        <mxCell id="2k_Up1OaFUUE34-ynXtq-31" value="" style="edgeStyle=orthogonalEdgeStyle;rounded=0;orthogonalLoop=1;jettySize=auto;html=1;" parent="WIyWlLk6GJQsqaUBKTNV-1" source="2k_Up1OaFUUE34-ynXtq-28" target="2k_Up1OaFUUE34-ynXtq-30" edge="1">
          <mxGeometry relative="1" as="geometry" />
        </mxCell>
        <mxCell id="2k_Up1OaFUUE34-ynXtq-28" value="&lt;div&gt;make and pack&lt;/div&gt;&lt;div&gt;{serial number}Label&lt;/div&gt;&lt;div&gt;to display name, amount,&lt;/div&gt;&lt;div&gt;&amp;nbsp;and price&lt;br&gt;&lt;/div&gt;" style="shape=parallelogram;perimeter=parallelogramPerimeter;whiteSpace=wrap;html=1;fixedSize=1;strokeWidth=2;" parent="WIyWlLk6GJQsqaUBKTNV-1" vertex="1">
          <mxGeometry x="420" y="510" width="160" height="80" as="geometry" />
        </mxCell>
        <mxCell id="2k_Up1OaFUUE34-ynXtq-33" value="when button pressed" style="edgeStyle=orthogonalEdgeStyle;rounded=0;orthogonalLoop=1;jettySize=auto;html=1;" parent="WIyWlLk6GJQsqaUBKTNV-1" source="2k_Up1OaFUUE34-ynXtq-30" target="2k_Up1OaFUUE34-ynXtq-32" edge="1">
          <mxGeometry relative="1" as="geometry" />
        </mxCell>
        <mxCell id="HWs9kD0eq3oXpUhwyqGG-9" value="" style="edgeStyle=orthogonalEdgeStyle;rounded=0;orthogonalLoop=1;jettySize=auto;html=1;" edge="1" parent="WIyWlLk6GJQsqaUBKTNV-1" source="2k_Up1OaFUUE34-ynXtq-30" target="HWs9kD0eq3oXpUhwyqGG-8">
          <mxGeometry relative="1" as="geometry" />
        </mxCell>
        <mxCell id="2k_Up1OaFUUE34-ynXtq-30" value="&lt;div&gt;make and pack &lt;br&gt;&lt;/div&gt;&lt;div&gt;{serial number}buttons&lt;br&gt;&lt;/div&gt;" style="shape=parallelogram;perimeter=parallelogramPerimeter;whiteSpace=wrap;html=1;fixedSize=1;strokeWidth=2;" parent="WIyWlLk6GJQsqaUBKTNV-1" vertex="1">
          <mxGeometry x="420" y="630" width="160" height="60" as="geometry" />
        </mxCell>
        <mxCell id="2k_Up1OaFUUE34-ynXtq-32" value="respective button function&lt;br&gt;&lt;div&gt;serial number and&lt;/div&gt;&lt;div&gt;is_cart_button = True&lt;br&gt;&lt;/div&gt;" style="shape=process;whiteSpace=wrap;html=1;backgroundOutline=1;strokeWidth=2;" parent="WIyWlLk6GJQsqaUBKTNV-1" vertex="1">
          <mxGeometry x="730" y="620" width="163" height="80" as="geometry" />
        </mxCell>
        <mxCell id="HWs9kD0eq3oXpUhwyqGG-3" value="" style="edgeStyle=orthogonalEdgeStyle;rounded=0;orthogonalLoop=1;jettySize=auto;html=1;" edge="1" parent="WIyWlLk6GJQsqaUBKTNV-1" source="HWs9kD0eq3oXpUhwyqGG-0" target="HWs9kD0eq3oXpUhwyqGG-2">
          <mxGeometry relative="1" as="geometry" />
        </mxCell>
        <mxCell id="HWs9kD0eq3oXpUhwyqGG-0" value="&lt;div&gt;delete contents of&lt;/div&gt;&lt;div&gt;{sn}Entry&lt;/div&gt;" style="shape=parallelogram;perimeter=parallelogramPerimeter;whiteSpace=wrap;html=1;fixedSize=1;" vertex="1" parent="WIyWlLk6GJQsqaUBKTNV-1">
          <mxGeometry x="85" y="130" width="120" height="60" as="geometry" />
        </mxCell>
        <mxCell id="HWs9kD0eq3oXpUhwyqGG-6" value="" style="edgeStyle=orthogonalEdgeStyle;rounded=0;orthogonalLoop=1;jettySize=auto;html=1;" edge="1" parent="WIyWlLk6GJQsqaUBKTNV-1" source="HWs9kD0eq3oXpUhwyqGG-2" target="HWs9kD0eq3oXpUhwyqGG-5">
          <mxGeometry relative="1" as="geometry" />
        </mxCell>
        <mxCell id="HWs9kD0eq3oXpUhwyqGG-2" value="&lt;div&gt;set width of&lt;/div&gt;&lt;div&gt;{sn}Entry depending&lt;/div&gt;&lt;div&gt;on length of amount&lt;br&gt;&lt;/div&gt;" style="shape=parallelogram;perimeter=parallelogramPerimeter;whiteSpace=wrap;html=1;fixedSize=1;" vertex="1" parent="WIyWlLk6GJQsqaUBKTNV-1">
          <mxGeometry x="85" y="220" width="120" height="60" as="geometry" />
        </mxCell>
        <mxCell id="HWs9kD0eq3oXpUhwyqGG-7" value="" style="edgeStyle=orthogonalEdgeStyle;rounded=0;orthogonalLoop=1;jettySize=auto;html=1;" edge="1" parent="WIyWlLk6GJQsqaUBKTNV-1" source="HWs9kD0eq3oXpUhwyqGG-5" target="2k_Up1OaFUUE34-ynXtq-19">
          <mxGeometry relative="1" as="geometry" />
        </mxCell>
        <mxCell id="HWs9kD0eq3oXpUhwyqGG-5" value="&lt;div&gt;set text in&lt;/div&gt;&lt;div&gt;{sn}Entry&lt;/div&gt;&lt;div&gt;to amount&lt;br&gt;&lt;/div&gt;" style="shape=parallelogram;perimeter=parallelogramPerimeter;whiteSpace=wrap;html=1;fixedSize=1;" vertex="1" parent="WIyWlLk6GJQsqaUBKTNV-1">
          <mxGeometry x="85" y="310" width="120" height="60" as="geometry" />
        </mxCell>
        <mxCell id="HWs9kD0eq3oXpUhwyqGG-10" style="edgeStyle=orthogonalEdgeStyle;rounded=0;orthogonalLoop=1;jettySize=auto;html=1;" edge="1" parent="WIyWlLk6GJQsqaUBKTNV-1" source="HWs9kD0eq3oXpUhwyqGG-8">
          <mxGeometry relative="1" as="geometry">
            <mxPoint x="140" y="660" as="targetPoint" />
          </mxGeometry>
        </mxCell>
        <mxCell id="HWs9kD0eq3oXpUhwyqGG-8" value="&lt;div&gt;create bind and configure&amp;nbsp;&lt;/div&gt;&lt;div&gt;{sn}Entry&lt;/div&gt;" style="shape=parallelogram;perimeter=parallelogramPerimeter;whiteSpace=wrap;html=1;fixedSize=1;strokeWidth=2;" vertex="1" parent="WIyWlLk6GJQsqaUBKTNV-1">
          <mxGeometry x="200" y="630" width="120" height="60" as="geometry" />
        </mxCell>
      </root>
    </mxGraphModel>
  </diagram>
</mxfile>
